<?xml version="1.0" encoding="utf-8"?>
<!-- Generator: Adobe Illustrator 25.1.0, SVG Export Plug-In . SVG Version: 6.00 Build 0)  -->
<svg version="1.1" id="Layer_1" xmlns="http://www.w3.org/2000/svg" xmlns:xlink="http://www.w3.org/1999/xlink" x="0px" y="0px"
	 viewBox="0 0 144 144" style="enable-background:new 0 0 144 144;" xml:space="preserve">
<style type="text/css">
	.st0{fill:#BBBBBB;}
</style>
<path class="st0" d="M104.7,95.8c-2-2-4.2-4.1-6.7-5.9c-1.8-1.3-2.8-3.4-2.8-5.6V57.1c0-12.9-10.6-23.5-23.5-23.5l0,0
	c-12.9,0-23.5,10.6-23.5,23.5v27.3c0,2.3-1,4.4-2.8,5.8c-2.4,1.9-4.9,4.2-7.4,6.8c-2.3,2.4-1,6.4,2.2,7.1c11.4,2.3,35.3,5.7,62-0.2
	C106,103,107.3,98.5,104.7,95.8z M55.1,63.3c-1.1-3.1,1.1-6.8,5.1-8.2c3.9-1.4,8,0,9.1,3.1c1.1,3.1-1.1,6.8-5.1,8.2
	C60.3,67.8,56.2,66.5,55.1,63.3z M72.3,84.2c-5,0-9-2.2-9-5c0-2.8,4-5,9-5c5,0,9,2.2,9,5C81.2,82,77.2,84.2,72.3,84.2z M88.2,63.3
	c-1.1,3.1-5.2,4.5-9.1,3.1c-3.9-1.4-6.2-5.1-5.1-8.2c1.1-3.1,5.2-4.5,9.1-3.1C87.1,56.5,89.4,60.2,88.2,63.3z"/>
</svg>
