<?xml version="1.0" encoding="utf-8"?>
<!-- Generator: Adobe Illustrator 26.4.1, SVG Export Plug-In . SVG Version: 6.00 Build 0)  -->
<svg version="1.1" id="Layer_1" xmlns="http://www.w3.org/2000/svg" xmlns:xlink="http://www.w3.org/1999/xlink" x="0px" y="0px"
	 viewBox="0 0 36 36" style="enable-background:new 0 0 36 36;" xml:space="preserve">
<style type="text/css">
	.st0{fill:#AAAAAA;}
</style>
<g id="Layer_1_1_">
	<path class="st0" d="M13,25.3v4H7v-4H13z M13,19.3v4H7v-4H13z"/>
</g>
<g id="Layer_1_00000078016577529387399910000009423179460661281955_">
	<path class="st0" d="M13,13.3v4H7v-4H13z M13,7.3v4H7v-4H13z"/>
</g>
<g id="Layer_1_00000039111189076272410350000004593610854197930676_">
	<path class="st0" d="M21,25.3v4h-6v-4H21z M21,19.3v4h-6v-4H21z"/>
</g>
<g id="Layer_1_00000003071757694650317990000007722685281540972446_">
	<path class="st0" d="M21,13.3v4h-6v-4H21z M21,7.3v4h-6v-4H21z"/>
</g>
<g id="Layer_1_00000158729196370168847130000009591475129634954936_">
	<path class="st0" d="M29,25.3v4h-6v-4H29z M29,19.3v4h-6v-4H29z"/>
</g>
<g id="Layer_1_00000135682758789726634470000004948638842736530615_">
	<path class="st0" d="M29,13.3v4h-6v-4H29z M29,7.3v4h-6v-4H29z"/>
</g>
</svg>
