<?xml version="1.0" encoding="utf-8"?>
<!-- Generator: Adobe Illustrator 25.1.0, SVG Export Plug-In . SVG Version: 6.00 Build 0)  -->
<svg version="1.1" id="Layer_1" xmlns="http://www.w3.org/2000/svg" xmlns:xlink="http://www.w3.org/1999/xlink" x="0px" y="0px"
	 viewBox="0 0 144 144" style="enable-background:new 0 0 144 144;" xml:space="preserve">
<path d="M23.1,42.8v13.3h33.4v4h3.2v6.2c0,1.7,1.4,3.1,3.1,3.1h5.6c5.5,16.4,20.4,7,20.4,7s7.3-4,10.4,12.6
	c3.1,16.6,15.8,15.6,19.8,12.7c14-14.1-1.4-31.6-13-41.3c-1.8-1.5,0.6-2.9-0.9-4c-2.6-3.7,0.8-5.5,4.4-5.8l-2.2-2.4
	c-10.1,0.7-12.8-7.9-12.8-7.9l-7,2.5H31.1v-0.6c-0.1-1-1.1-1.4-1.8-1l-2.4,1.4H23.1z M72.6,70.5c0-2.8,3.2-4.9,7.3-5.2
	c1.1,3.2-1.6,7.6-0.8,7.3c3.4-1.7,3.8-5,3.8-7.2c3.4,0.6,5.8,2.6,5.8,4.9c0,2.9-3.6,5.2-8,5.2C76.2,75.5,72.6,73.2,72.6,70.5z"/>
</svg>
