<?xml version="1.0" encoding="utf-8"?>
<!-- Generator: Adobe Illustrator 25.3.1, SVG Export Plug-In . SVG Version: 6.00 Build 0)  -->
<svg version="1.1" id="Layer_1" xmlns="http://www.w3.org/2000/svg" xmlns:xlink="http://www.w3.org/1999/xlink" x="0px" y="0px"
	 viewBox="0 0 40 40" style="enable-background:new 0 0 40 40;" xml:space="preserve">
<style type="text/css">
	.st0{fill:#111111;}
	.st1{fill:#DDDDDD;}
</style>
<path class="st0" d="M40,40H0V4c0-2.2,1.8-4,4-4h32c2.2,0,4,1.8,4,4V40z"/>
<g id="M1QkTw.tif">
	<g>
		<path class="st1" d="M8.5,20c0.1,0,0.1-0.1,0.2-0.1c2.2-1.7,4.3-3.4,6.5-5.1c0,0,0.1-0.1,0.1-0.1c0.1,0,0,0.1,0,0.1
			c0,3.4,0,6.9,0,10.3c0,0,0,0.1,0,0.1c-0.1,0-0.1,0-0.1-0.1c-2.2-1.7-4.3-3.4-6.5-5C8.6,20.1,8.5,20.1,8.5,20C8.5,20,8.5,20,8.5,20
			z"/>
		<path class="st1" d="M24.8,20c0-1.7,0-3.4,0-5.2c0,0,0-0.1,0-0.1c0.1,0,0.1,0,0.1,0.1c2.2,1.7,4.4,3.4,6.5,5.1
			c0.1,0.1,0.1,0.1,0,0.2c-2.2,1.7-4.4,3.4-6.6,5.1c0,0,0,0-0.1,0c0,0,0,0-0.1,0c0,0,0,0,0-0.1c0,0,0-0.1,0-0.1
			C24.8,23.4,24.8,21.7,24.8,20z"/>
	</g>
</g>
</svg>
