<?xml version="1.0" encoding="utf-8"?>
<!-- Generator: Adobe Illustrator 25.0.0, SVG Export Plug-In . SVG Version: 6.00 Build 0)  -->
<svg version="1.1" id="Layer_1" xmlns="http://www.w3.org/2000/svg" xmlns:xlink="http://www.w3.org/1999/xlink" x="0px" y="0px"
	 viewBox="0 0 1000 450" style="enable-background:new 0 0 1000 450;" xml:space="preserve">
<style type="text/css">
	.st0{fill:#646464;}
</style>
<g>
	<path class="st0" d="M120.8,367.4V95c0-6.4,4.4-9.6,13.2-9.6c8.8,0,13.2,3.2,13.2,9.6v119.6h115.6V95c0-6.4,4.4-9.6,13.2-9.6
		c8.8,0,13.2,3.2,13.2,9.6v272.4c0,3.2-1.3,5.7-4,7.6c-2.7,1.9-5.7,2.8-9.2,2.8c-3.7,0-6.9-0.9-9.4-2.8c-2.5-1.9-3.8-4.4-3.8-7.6
		v-130H147.2v130c0,3.2-1.3,5.7-4,7.6c-2.7,1.9-5.7,2.8-9.2,2.8c-3.7,0-6.9-0.9-9.4-2.8C122.1,373.2,120.8,370.6,120.8,367.4z"/>
	<path class="st0" d="M328,366.6c0-1.3,0.1-2.3,0.4-2.8L412,92.3c1.9-6.1,7-9.2,15.5-9.2s13.8,3.1,15.9,9.3l83.4,272.2
		c0,0.3,0.1,0.6,0.2,1.1c0.1,0.5,0.2,0.9,0.2,1.1c0,3-1.7,5.7-5.2,7.8c-3.5,2.2-7.1,3.2-10.8,3.2c-5.1,0-8.4-2.3-10-6.8l-18.4-61.6
		H372.3l-18.5,61.7c-1.1,4.5-4.6,6.7-10.5,6.7c-3.8,0-7.2-1.1-10.5-3.2C329.6,372.5,328,369.8,328,366.6z M379.2,286.6H476
		l-48.2-161.5L379.2,286.6z"/>
	<path class="st0" d="M519.2,97.6c0-3.1,0.9-6,2.6-8.5c1.7-2.5,4.2-3.7,7.4-3.7h160.4c3.2,0,5.7,1.2,7.4,3.5
		c1.7,2.4,2.6,5.1,2.6,8.3c0,3.4-0.9,6.4-2.6,8.9c-1.7,2.5-4.2,3.7-7.4,3.7h-66.8v257.6c0,3.2-1.3,5.7-4,7.6
		c-2.7,1.9-5.7,2.8-9.2,2.8c-3.7,0-6.9-0.9-9.4-2.8c-2.5-1.9-3.8-4.4-3.8-7.6V109.8h-67.2c-2.9,0-5.3-1.2-7.2-3.5
		C520.2,103.9,519.2,101.1,519.2,97.6z"/>
	<path class="st0" d="M736,367.4v-272c0-3.2,1.2-5.7,3.6-7.4c2.4-1.7,5.2-2.6,8.4-2.6h142.4c6.7,0,10,3.9,10,11.6
		c0,3.5-0.9,6.5-2.6,9c-1.7,2.5-4.2,3.8-7.4,3.8h-128v110h62.8c3.2,0,5.7,1.1,7.4,3.4c1.7,2.3,2.6,5.1,2.6,8.6
		c0,7.2-3.3,10.8-10,10.8h-62.8v110.8h128c2.9,0,5.3,1.2,7.2,3.6c1.9,2.4,2.8,5.3,2.8,8.8c0,8-3.3,12-10,12H748
		c-3.2,0-6-0.9-8.4-2.8C737.2,373.2,736,370.6,736,367.4z"/>
</g>
</svg>
