<?xml version="1.0" encoding="utf-8"?>
<!-- Generator: Adobe Illustrator 25.3.1, SVG Export Plug-In . SVG Version: 6.00 Build 0)  -->
<svg version="1.1" id="Layer_1" xmlns="http://www.w3.org/2000/svg" xmlns:xlink="http://www.w3.org/1999/xlink" x="0px" y="0px"
	 viewBox="0 0 144 144" style="enable-background:new 0 0 144 144;" xml:space="preserve">
<style type="text/css">
	.st0{fill:#DDDDDD;}
</style>
<g id="_x30_xT0gw.tif">
</g>
<g>
	<path class="st0" d="M61.3,108.4c-2.2-1-4.4,0.2-4.7,3.4c0.3,1.3,1.2,2.3,2.1,3.4c0.3,0.3,0.5,0,0.7-0.2c1.3-1.6,2.2-3.4,2.5-5.5
		C61.9,109,61.8,108.7,61.3,108.4z"/>
	<path class="st0" d="M84.6,107.3c-0.8-0.2-1.7-0.5-2.4-0.1c-0.6,0.3-0.1,1.1-0.2,1.7c0,0,0,0.1,0,0.1c0,0,0,0,0,0
		c0.1,0.9,0.2,1.7,0.3,2.6c0,0.5,0.2,0.6,0.7,0.4c1.2-0.5,2.4-3.2,2-4.4C84.8,107.5,84.7,107.3,84.6,107.3z"/>
	<path class="st0" d="M76.8,106.2c-1.5,0.2-1.1,1.3-1.2,2.3c0,0.3,0,0.6,0,0.9c0,0,0,0,0,0c0,0.6-0.1,1.2,0,1.7
		c0.2,1.1,0.6,2.3,1.7,2.7c1.3,0.4,3.2-1.3,3.1-2.7c0-1-0.3-2-0.6-3C79.3,106.4,78.6,106,76.8,106.2z"/>
	<path class="st0" d="M66.7,111.1C66.6,111.1,66.6,111.1,66.7,111.1c-0.1-0.5,0-1.1-0.1-1.6c0-0.1,0-0.2,0-0.2
		c0-0.4-0.1-0.7-0.6-0.8c-1.1-0.2-1.8,0.2-2.1,1.3c-0.2,0.8-0.3,1.6-0.5,2.4c-0.1,0.6,0,0.9,0.6,1.1c2.4,0.9,2.7,0.7,2.6-1.8
		C66.7,111.4,66.7,111.3,66.7,111.1z"/>
	<path class="st0" d="M73.7,107.9c-0.1-1-0.5-1.5-1.6-1.3c-0.7,0.1-1.4,0-1.9,0.6c-1.3,1.7-1,4,0.4,5.6c0.8,0.9,1.6,0.6,2.2,0
		c0.8-0.7,1.2-1.5,1.1-2.6C73.8,109.4,73.8,108.6,73.7,107.9z"/>
	<path class="st0" d="M89,108.1c-0.8,0-2.2,1.4-2.2,2.3c-0.2,1.5,0.6,2.6,1.7,3.5c0.4,0.3,0.6,0.2,0.8-0.1c0.5-0.8,1.1-1.6,1.5-2.5
		C91.2,110.4,89.8,108.1,89,108.1z"/>
	<path class="st0" d="M108,84.3c-1.4-2-2.6-4.2-3.6-6.5c-0.8-1.9-1.4-3.8-1.2-6c0.4-4.7,0.9-9.5,0.6-14.3c-0.3-4.7-1.6-9-5.3-12.2
		c-1.5-1.3-3-2.6-4.4-3.9c-4.9-4.6-10.7-6.6-17.4-6.7c-4,0-7.9,0.3-11.8,0.8c-8.1,0.9-14.6,4.5-19.2,11.2c-3.2,4.7-5,10-5.9,15.5
		c-0.3,2-0.1,3.8,0.7,5.7c1,2.2,1.7,4.5,2.4,6.8c0.5,1.6,0.9,3.3,1.3,5c0.8,3.9-0.7,7.1-3.5,9.7c-0.8,0.8-1,1.5-0.6,2.5
		c0.5,1.2,1,2.4,1.4,3.7c0.3,0.9,0.8,1.3,1.7,1.4c1.5,0.2,3,0.5,4.5,0.8c2.5,0.4,5.1,1.3,7.8-0.2c-1.4,1.9-0.2,3.5,0.4,5.2
		c0.2,0.6,0.6,1.2,0.7,1.8c0.3,0.9,0.8,1.3,1.7,1.1c2.5-0.4,5-0.1,7.6-0.3c2.8-0.3,5.5-1.3,8.4-1.4c2.5-0.1,4.9-0.1,7.3,0.3
		c2.5,0.5,5.1,0.9,7.6,1.6c0.4,0.1,0.9,0.2,1-0.4c0.6-2.2,1.8-4.4,1.4-6.8c-0.2-1,0.2-1.1,1-0.8c0.6,0.2,1.2,0.3,1.8,0.1
		c3.4-1,6.8-2.1,9.9-3.7c1.2-0.6,1.9-1.5,2.4-2.7c0.7-1.8,1.2-3.6,1.6-5.4C108.6,85.7,108.5,85,108,84.3z M68.6,77
		c0,2.9-0.9,5.3-3,7.2c-1.6,1.4-3.2,2.7-5,3.8c-7,4-14.4-0.3-14.5-8.4c0-3.5,1.4-6.5,3.1-9.5c2.3-4.1,8.5-6.4,12.8-4.5
		c3.9,1.6,5.6,4.9,6.3,8.8C68.6,75.2,68.7,76.1,68.6,77z M78.1,93.6c0,0.2-0.1,0.5-0.2,0.7c-0.1,0.2-0.1,0.5-0.4,0.5
		c-0.3,0-0.3-0.3-0.4-0.5c-0.8-1.6-1.5-3.2-2.3-4.8c-0.1-0.3-0.3-0.5-0.6-1c-0.9,3.2-1.5,6.3-3.3,9.3c-0.7-3.5-1.6-6.7-1-10
		c0.4-2.3,1.3-4.4,2.6-6.3c0.7-1.1,1.2-1.1,2.2-0.3c0.9,0.8,1.6,1.6,2,2.8C77.9,87.1,78.7,90.3,78.1,93.6z M97.3,84
		c-2.2,2.2-4.9,3.3-8.5,3.4c-1.1,0.1-2.5-0.5-3.9-1.3c-1.5-0.9-2.9-2-4.3-3.1c-0.2-0.2-0.5-0.5-0.6-0.7c-2-4-2.6-8-0.8-12.2
		c1-2.2,2.6-3.8,5-4.4c2.3-0.6,4.6-0.9,6.9-0.5c3.3,0.6,5.2,2.7,6.5,5.6c0.9,2.1,1.6,4.3,2,6.6C100.1,79.9,99.2,82.1,97.3,84z"/>
</g>
</svg>
