<?xml version="1.0" encoding="utf-8"?>
<!-- Generator: Adobe Illustrator 25.0.0, SVG Export Plug-In . SVG Version: 6.00 Build 0)  -->
<svg version="1.1" id="Layer_1" xmlns="http://www.w3.org/2000/svg" xmlns:xlink="http://www.w3.org/1999/xlink" x="0px" y="0px"
	 viewBox="0 0 1000 450" style="enable-background:new 0 0 1000 450;" xml:space="preserve">
<style type="text/css">
	.st0{fill:#DC6464;}
</style>
<g>
	<path class="st0" d="M121,367.4V95c0-6.4,4.4-9.6,13.2-9.6c8.8,0,13.2,3.2,13.2,9.6v258.4h114c5.9,0,8.8,4,8.8,12
		c0,8.3-2.9,12.4-8.8,12.4H133c-3.2,0-6-0.9-8.4-2.8C122.2,373.2,121,370.6,121,367.4z"/>
	<path class="st0" d="M296.6,294.6v-124c0-29.3,7.5-50.9,22.6-64.6c15.1-13.7,35.3-20.6,60.6-20.6c25.3,0,45.5,6.9,60.6,20.6
		c15.1,13.7,22.6,35.3,22.6,64.6v124c0,29.6-7.5,51.3-22.6,65c-15.1,13.7-35.3,20.6-60.6,20.6c-25.3,0-45.5-6.9-60.6-20.6
		C304.2,345.9,296.6,324.2,296.6,294.6z M323,294.6c0,40.8,18.9,61.2,56.8,61.2c37.9,0,56.8-20.4,56.8-61.2v-124
		c0-40.5-18.9-60.8-56.8-60.8c-37.9,0-56.8,20.3-56.8,60.8V294.6z"/>
	<path class="st0" d="M498.2,96.6c0-3.2,1.6-5.9,4.8-8c3.2-2.1,6.7-3.2,10.4-3.2c5.9,0,9.3,2.3,10.4,6.8l74,245.6l73.6-245.6
		c1.6-4.5,4.9-6.8,10-6.8c3.7,0,7.3,1.1,10.8,3.4c3.5,2.2,5.2,4.9,5.2,8.1c0,0.3-0.2,0.7-0.5,1.2c-0.3,0.5-0.5,0.9-0.5,1.2
		l-83,271.3c-1.9,6.5-7.2,9.7-16,9.7c-8.5,0-13.7-3.2-15.6-9.6L498.6,99.4C498.4,98.9,498.2,98,498.2,96.6z"/>
	<path class="st0" d="M735.8,367.4v-272c0-3.2,1.2-5.7,3.6-7.4c2.4-1.7,5.2-2.6,8.4-2.6h142.4c6.7,0,10,3.9,10,11.6
		c0,3.5-0.9,6.5-2.6,9c-1.7,2.5-4.2,3.8-7.4,3.8h-128v110H825c3.2,0,5.7,1.1,7.4,3.4c1.7,2.3,2.6,5.1,2.6,8.6
		c0,7.2-3.3,10.8-10,10.8h-62.8v110.8h128c2.9,0,5.3,1.2,7.2,3.6c1.9,2.4,2.8,5.3,2.8,8.8c0,8-3.3,12-10,12H747.8
		c-3.2,0-6-0.9-8.4-2.8C737,373.2,735.8,370.6,735.8,367.4z"/>
</g>
</svg>
